<?xml version="1.0" encoding="UTF-8" standalone="no"?>
<!DOCTYPE svg PUBLIC "-//W3C//DTD SVG 1.1//EN"
 "http://www.w3.org/Graphics/SVG/1.1/DTD/svg11.dtd">
<!-- Generated by graphviz version 5.0.1 (20220820.1526)
 -->
<!-- Title: geometry::collision::sat Pages: 1 -->
<svg width="260pt" height="51pt"
 viewBox="0.00 0.00 260.00 50.50" xmlns="http://www.w3.org/2000/svg" xmlns:xlink="http://www.w3.org/1999/xlink">
<g id="graph0" class="graph" transform="scale(1 1) rotate(0) translate(4 46.5)">
<title>geometry::collision::sat</title>
<!-- Node1 -->
<g id="node1" class="node">
<title>Node1</title>
<g id="a_node1"><a xlink:title="Performs the SAT collision algorithm on two 2&#45;dimensional shapes.">
<polygon fill="#999999" stroke="#666666" points="118,-24.5 0,-24.5 0,-5.5 118,-5.5 118,-24.5"/>
<text text-anchor="middle" x="59" y="-12.5" font-family="Helvetica,sans-Serif" font-size="10.00">geometry::collision::sat</text>
</a>
</g>
</g>
<!-- Node1&#45;&gt;Node1 -->
<g id="edge2" class="edge">
<title>Node1&#45;&gt;Node1</title>
<path fill="none" stroke="#63b8ff" d="M36.81,-24.58C26.01,-33.23 33.41,-42.5 59,-42.5 75.4,-42.5 84.32,-38.7 85.79,-33.69"/>
<polygon fill="#63b8ff" stroke="#63b8ff" points="88.82,-31.94 81.19,-24.58 82.57,-35.09 88.82,-31.94"/>
</g>
<!-- Node2 -->
<g id="node2" class="node">
<title>Node2</title>
<g id="a_node2"><a xlink:href="../../df/d23/classgeometry_1_1collision_1_1_shape.html#a21a2ef2f0f3ddcec8243c03227230c9c" target="_top" xlink:title="projects @this and @otherShape onto all the axes defined by @this and checks for overlapping">
<polygon fill="white" stroke="#666666" points="252,-30 154,-30 154,0 252,0 252,-30"/>
<text text-anchor="start" x="162" y="-18" font-family="Helvetica,sans-Serif" font-size="10.00">geometry::collision</text>
<text text-anchor="middle" x="203" y="-7" font-family="Helvetica,sans-Serif" font-size="10.00">::Shape::SAT</text>
</a>
</g>
</g>
<!-- Node1&#45;&gt;Node2 -->
<g id="edge1" class="edge">
<title>Node1&#45;&gt;Node2</title>
<path fill="none" stroke="#63b8ff" d="M118.17,-15C126.55,-15 135.18,-15 143.58,-15"/>
<polygon fill="#63b8ff" stroke="#63b8ff" points="143.66,-18.5 153.66,-15 143.66,-11.5 143.66,-18.5"/>
</g>
</g>
</svg>
