<?xml version="1.0" encoding="UTF-8" standalone="no"?>
<!DOCTYPE svg PUBLIC "-//W3C//DTD SVG 1.1//EN"
 "http://www.w3.org/Graphics/SVG/1.1/DTD/svg11.dtd">
<!-- Generated by graphviz version 5.0.1 (20220820.1526)
 -->
<!-- Title: geometry::collision::OverlapOnAxis Pages: 1 -->
<svg width="240pt" height="104pt"
 viewBox="0.00 0.00 240.00 104.00" xmlns="http://www.w3.org/2000/svg" xmlns:xlink="http://www.w3.org/1999/xlink">
<g id="graph0" class="graph" transform="scale(1 1) rotate(0) translate(4 100)">
<title>geometry::collision::OverlapOnAxis</title>
<!-- Node1 -->
<g id="node1" class="node">
<title>Node1</title>
<g id="a_node1"><a xlink:title="Find if two shapes overlap when projected onto an axis.">
<polygon fill="#999999" stroke="#666666" points="98,-54 0,-54 0,-24 98,-24 98,-54"/>
<text text-anchor="start" x="8" y="-42" font-family="Helvetica,sans-Serif" font-size="10.00">geometry::collision</text>
<text text-anchor="middle" x="49" y="-31" font-family="Helvetica,sans-Serif" font-size="10.00">::OverlapOnAxis</text>
</a>
</g>
</g>
<!-- Node1&#45;&gt;Node1 -->
<g id="edge3" class="edge">
<title>Node1&#45;&gt;Node1</title>
<path fill="none" stroke="#63b8ff" d="M25.45,-54.28C20.21,-63.41 28.06,-72 49,-72 61.43,-72 69.25,-68.97 72.46,-64.6"/>
<polygon fill="#63b8ff" stroke="#63b8ff" points="75.96,-64.31 72.55,-54.28 68.96,-64.24 75.96,-64.31"/>
</g>
<!-- Node2 -->
<g id="node2" class="node">
<title>Node2</title>
<g id="a_node2"><a xlink:href="../../df/de0/sat__collision_8cpp.html#acf6f2e740f3e88b806ed5d7fe72c52a8" target="_top" xlink:title="Find if two intervals [min1, max1] and [min2, max2] overlaps.">
<polygon fill="white" stroke="#666666" points="232,-78 134,-78 134,-48 232,-48 232,-78"/>
<text text-anchor="start" x="142" y="-66" font-family="Helvetica,sans-Serif" font-size="10.00">geometry::collision</text>
<text text-anchor="middle" x="183" y="-55" font-family="Helvetica,sans-Serif" font-size="10.00">::DoOverlap</text>
</a>
</g>
</g>
<!-- Node1&#45;&gt;Node2 -->
<g id="edge1" class="edge">
<title>Node1&#45;&gt;Node2</title>
<path fill="none" stroke="#63b8ff" d="M98.03,-47.73C106.4,-49.25 115.19,-50.85 123.8,-52.42"/>
<polygon fill="#63b8ff" stroke="#63b8ff" points="123.32,-55.89 133.79,-54.23 124.57,-49 123.32,-55.89"/>
</g>
<!-- Node3 -->
<g id="node3" class="node">
<title>Node3</title>
<g id="a_node3"><a xlink:href="../../df/d23/classgeometry_1_1collision_1_1_shape.html#a1033a34210faa1043cc5ff729d76549d" target="_top" xlink:title="projects the shape onto an axis which creates a finite interval [minRes, maxRes]">
<polygon fill="white" stroke="#666666" points="232,-30 134,-30 134,0 232,0 232,-30"/>
<text text-anchor="start" x="142" y="-18" font-family="Helvetica,sans-Serif" font-size="10.00">geometry::collision</text>
<text text-anchor="middle" x="183" y="-7" font-family="Helvetica,sans-Serif" font-size="10.00">::Shape::Project</text>
</a>
</g>
</g>
<!-- Node1&#45;&gt;Node3 -->
<g id="edge4" class="edge">
<title>Node1&#45;&gt;Node3</title>
<path fill="none" stroke="#63b8ff" d="M98.03,-30.27C106.4,-28.75 115.19,-27.15 123.8,-25.58"/>
<polygon fill="#63b8ff" stroke="#63b8ff" points="124.57,-29 133.79,-23.77 123.32,-22.11 124.57,-29"/>
</g>
<!-- Node2&#45;&gt;Node2 -->
<g id="edge2" class="edge">
<title>Node2&#45;&gt;Node2</title>
<path fill="none" stroke="#63b8ff" d="M159.45,-78.28C154.21,-87.41 162.06,-96 183,-96 195.43,-96 203.25,-92.97 206.46,-88.6"/>
<polygon fill="#63b8ff" stroke="#63b8ff" points="209.96,-88.31 206.55,-78.28 202.96,-88.24 209.96,-88.31"/>
</g>
</g>
</svg>
