<?xml version="1.0" encoding="UTF-8" standalone="no"?>
<!DOCTYPE svg PUBLIC "-//W3C//DTD SVG 1.1//EN"
 "http://www.w3.org/Graphics/SVG/1.1/DTD/svg11.dtd">
<!-- Generated by graphviz version 5.0.1 (20220820.1526)
 -->
<!-- Title: Graphical Class Hierarchy Pages: 1 -->
<svg width="240pt" height="86pt"
 viewBox="0.00 0.00 240.00 86.00" xmlns="http://www.w3.org/2000/svg" xmlns:xlink="http://www.w3.org/1999/xlink">
<g id="graph0" class="graph" transform="scale(1 1) rotate(0) translate(4 82)">
<title>Graphical Class Hierarchy</title>
<!-- Node0 -->
<g id="node1" class="node">
<title>Node0</title>
<g id="a_node1"><a xlink:href="df/d23/classgeometry_1_1collision_1_1_shape.html" target="_top" xlink:title="Abstract shape.">
<polygon fill="white" stroke="#666666" points="98,-54 0,-54 0,-24 98,-24 98,-54"/>
<text text-anchor="start" x="8" y="-42" font-family="Helvetica,sans-Serif" font-size="10.00">geometry::collision</text>
<text text-anchor="middle" x="49" y="-31" font-family="Helvetica,sans-Serif" font-size="10.00">::Shape</text>
</a>
</g>
</g>
<!-- Node1 -->
<g id="node2" class="node">
<title>Node1</title>
<g id="a_node2"><a xlink:href="d1/d06/classgeometry_1_1collision_1_1_circle.html" target="_top" xlink:title="Circle representation. Consists of a centre (position vector) and a radius.">
<polygon fill="white" stroke="#666666" points="232,-78 134,-78 134,-48 232,-48 232,-78"/>
<text text-anchor="start" x="142" y="-66" font-family="Helvetica,sans-Serif" font-size="10.00">geometry::collision</text>
<text text-anchor="middle" x="183" y="-55" font-family="Helvetica,sans-Serif" font-size="10.00">::Circle</text>
</a>
</g>
</g>
<!-- Node0&#45;&gt;Node1 -->
<g id="edge1" class="edge">
<title>Node0&#45;&gt;Node1</title>
<path fill="none" stroke="#63b8ff" d="M108.01,-49.55C116.62,-51.11 125.41,-52.71 133.79,-54.23"/>
<polygon fill="#63b8ff" stroke="#63b8ff" points="108.49,-46.08 98.03,-47.73 107.24,-52.96 108.49,-46.08"/>
</g>
<!-- Node2 -->
<g id="node3" class="node">
<title>Node2</title>
<g id="a_node3"><a xlink:href="d5/de5/classgeometry_1_1collision_1_1_polygon.html" target="_top" xlink:title="Convex Polygon representation. Consists of a collection of vertices (which are represented by positio...">
<polygon fill="white" stroke="#666666" points="232,-30 134,-30 134,0 232,0 232,-30"/>
<text text-anchor="start" x="142" y="-18" font-family="Helvetica,sans-Serif" font-size="10.00">geometry::collision</text>
<text text-anchor="middle" x="183" y="-7" font-family="Helvetica,sans-Serif" font-size="10.00">::Polygon</text>
</a>
</g>
</g>
<!-- Node0&#45;&gt;Node2 -->
<g id="edge2" class="edge">
<title>Node0&#45;&gt;Node2</title>
<path fill="none" stroke="#63b8ff" d="M108.01,-28.45C116.62,-26.89 125.41,-25.29 133.79,-23.77"/>
<polygon fill="#63b8ff" stroke="#63b8ff" points="107.24,-25.04 98.03,-30.27 108.49,-31.92 107.24,-25.04"/>
</g>
</g>
</svg>
