<?xml version="1.0" encoding="UTF-8" standalone="no"?>
<!DOCTYPE svg PUBLIC "-//W3C//DTD SVG 1.1//EN"
 "http://www.w3.org/Graphics/SVG/1.1/DTD/svg11.dtd">
<!-- Generated by graphviz version 5.0.1 (20220820.1526)
 -->
<!-- Title: geometry::collision::Circle Pages: 1 -->
<svg width="222pt" height="115pt"
 viewBox="0.00 0.00 222.00 115.00" xmlns="http://www.w3.org/2000/svg" xmlns:xlink="http://www.w3.org/1999/xlink">
<g id="graph0" class="graph" transform="scale(1 1) rotate(0) translate(4 111)">
<title>geometry::collision::Circle</title>
<!-- Node1 -->
<g id="node1" class="node">
<title>Node1</title>
<g id="a_node1"><a xlink:title="Circle representation. Consists of a centre (position vector) and a radius.">
<polygon fill="#999999" stroke="#666666" points="156,-30 58,-30 58,0 156,0 156,-30"/>
<text text-anchor="start" x="66" y="-18" font-family="Helvetica,sans-Serif" font-size="10.00">geometry::collision</text>
<text text-anchor="middle" x="107" y="-7" font-family="Helvetica,sans-Serif" font-size="10.00">::Circle</text>
</a>
</g>
</g>
<!-- Node2 -->
<g id="node2" class="node">
<title>Node2</title>
<g id="a_node2"><a xlink:href="../../df/d23/classgeometry_1_1collision_1_1_shape.html" target="_top" xlink:title="Abstract shape.">
<polygon fill="white" stroke="#666666" points="98,-107 0,-107 0,-77 98,-77 98,-107"/>
<text text-anchor="start" x="8" y="-95" font-family="Helvetica,sans-Serif" font-size="10.00">geometry::collision</text>
<text text-anchor="middle" x="49" y="-84" font-family="Helvetica,sans-Serif" font-size="10.00">::Shape</text>
</a>
</g>
</g>
<!-- Node2&#45;&gt;Node1 -->
<g id="edge1" class="edge">
<title>Node2&#45;&gt;Node1</title>
<path fill="none" stroke="#63b8ff" d="M66.22,-68.74C75.91,-56.2 87.73,-40.92 96.14,-30.04"/>
<polygon fill="#63b8ff" stroke="#63b8ff" points="63.26,-66.84 59.91,-76.89 68.8,-71.12 63.26,-66.84"/>
</g>
<!-- Node3 -->
<g id="node3" class="node">
<title>Node3</title>
<g id="a_node3"><a xlink:href="../../d6/da5/classgeometry_1_1collision_1_1_vec2.html" target="_top" xlink:title="2&#45;dimensional vector representation.">
<polygon fill="white" stroke="#666666" points="214,-107 116,-107 116,-77 214,-77 214,-107"/>
<text text-anchor="start" x="124" y="-95" font-family="Helvetica,sans-Serif" font-size="10.00">geometry::collision</text>
<text text-anchor="middle" x="165" y="-84" font-family="Helvetica,sans-Serif" font-size="10.00">::Vec2</text>
</a>
</g>
</g>
<!-- Node3&#45;&gt;Node1 -->
<g id="edge2" class="edge">
<title>Node3&#45;&gt;Node1</title>
<path fill="none" stroke="#9a32cd" stroke-dasharray="5,2" d="M147.78,-68.74C138.09,-56.2 126.27,-40.92 117.86,-30.04"/>
<polygon fill="#9a32cd" stroke="#9a32cd" points="145.2,-71.12 154.09,-76.89 150.74,-66.84 145.2,-71.12"/>
<text text-anchor="middle" x="162" y="-51" font-family="Helvetica,sans-Serif" font-size="10.00"> m_Centre</text>
</g>
</g>
</svg>
