<?xml version="1.0" encoding="UTF-8" standalone="no"?>
<!DOCTYPE svg PUBLIC "-//W3C//DTD SVG 1.1//EN"
 "http://www.w3.org/Graphics/SVG/1.1/DTD/svg11.dtd">
<!-- Generated by graphviz version 5.0.1 (20220820.1526)
 -->
<!-- Title: geometry::collision::Polygon Pages: 1 -->
<svg width="238pt" height="192pt"
 viewBox="0.00 0.00 237.50 192.00" xmlns="http://www.w3.org/2000/svg" xmlns:xlink="http://www.w3.org/1999/xlink">
<g id="graph0" class="graph" transform="scale(1 1) rotate(0) translate(4 188)">
<title>geometry::collision::Polygon</title>
<!-- Node1 -->
<g id="node1" class="node">
<title>Node1</title>
<g id="a_node1"><a xlink:title="Convex Polygon representation. Consists of a collection of vertices (which are represented by positio...">
<polygon fill="#999999" stroke="#666666" points="114,-30 16,-30 16,0 114,0 114,-30"/>
<text text-anchor="start" x="24" y="-18" font-family="Helvetica,sans-Serif" font-size="10.00">geometry::collision</text>
<text text-anchor="middle" x="65" y="-7" font-family="Helvetica,sans-Serif" font-size="10.00">::Polygon</text>
</a>
</g>
</g>
<!-- Node2 -->
<g id="node2" class="node">
<title>Node2</title>
<g id="a_node2"><a xlink:href="../../df/d23/classgeometry_1_1collision_1_1_shape.html" target="_top" xlink:title="Abstract shape.">
<polygon fill="white" stroke="#666666" points="98,-107 0,-107 0,-77 98,-77 98,-107"/>
<text text-anchor="start" x="8" y="-95" font-family="Helvetica,sans-Serif" font-size="10.00">geometry::collision</text>
<text text-anchor="middle" x="49" y="-84" font-family="Helvetica,sans-Serif" font-size="10.00">::Shape</text>
</a>
</g>
</g>
<!-- Node2&#45;&gt;Node1 -->
<g id="edge1" class="edge">
<title>Node2&#45;&gt;Node1</title>
<path fill="none" stroke="#63b8ff" d="M54.14,-66.91C56.74,-54.74 59.8,-40.4 62,-30.04"/>
<polygon fill="#63b8ff" stroke="#63b8ff" points="50.67,-66.38 52.01,-76.89 57.52,-67.84 50.67,-66.38"/>
</g>
<!-- Node3 -->
<g id="node3" class="node">
<title>Node3</title>
<g id="a_node3"><a target="_blank" xlink:href="http://en.cppreference.com/w/cpp/container/vector.html" xlink:title=" ">
<polygon fill="white" stroke="#666666" points="229.5,-107 116.5,-107 116.5,-77 229.5,-77 229.5,-107"/>
<text text-anchor="start" x="124.5" y="-95" font-family="Helvetica,sans-Serif" font-size="10.00">std::vector&lt; geometry</text>
<text text-anchor="middle" x="173" y="-84" font-family="Helvetica,sans-Serif" font-size="10.00">::collision::Vec2 &gt;</text>
</a>
</g>
</g>
<!-- Node3&#45;&gt;Node1 -->
<g id="edge2" class="edge">
<title>Node3&#45;&gt;Node1</title>
<path fill="none" stroke="#9a32cd" stroke-dasharray="5,2" d="M144.28,-71.05C125.66,-58.13 101.87,-41.6 85.22,-30.04"/>
<polygon fill="#9a32cd" stroke="#9a32cd" points="142.48,-74.06 152.69,-76.89 146.47,-68.31 142.48,-74.06"/>
<text text-anchor="middle" x="151.5" y="-51" font-family="Helvetica,sans-Serif" font-size="10.00"> m_Vertices</text>
</g>
<!-- Node4 -->
<g id="node4" class="node">
<title>Node4</title>
<g id="a_node4"><a xlink:href="../../d6/da5/classgeometry_1_1collision_1_1_vec2.html" target="_top" xlink:title="2&#45;dimensional vector representation.">
<polygon fill="white" stroke="#666666" points="222,-184 124,-184 124,-154 222,-154 222,-184"/>
<text text-anchor="start" x="132" y="-172" font-family="Helvetica,sans-Serif" font-size="10.00">geometry::collision</text>
<text text-anchor="middle" x="173" y="-161" font-family="Helvetica,sans-Serif" font-size="10.00">::Vec2</text>
</a>
</g>
</g>
<!-- Node4&#45;&gt;Node3 -->
<g id="edge3" class="edge">
<title>Node4&#45;&gt;Node3</title>
<path fill="none" stroke="#9a32cd" stroke-dasharray="5,2" d="M173,-143.54C173,-131.45 173,-117.29 173,-107.04"/>
<polygon fill="#9a32cd" stroke="#9a32cd" points="169.5,-143.89 173,-153.89 176.5,-143.89 169.5,-143.89"/>
<text text-anchor="middle" x="194.5" y="-128" font-family="Helvetica,sans-Serif" font-size="10.00"> elements</text>
</g>
</g>
</svg>
