<?xml version="1.0" encoding="UTF-8" standalone="no"?>
<!DOCTYPE svg PUBLIC "-//W3C//DTD SVG 1.1//EN"
 "http://www.w3.org/Graphics/SVG/1.1/DTD/svg11.dtd">
<!-- Generated by graphviz version 5.0.1 (20220820.1526)
 -->
<!-- Title: geometry::collision::Polygon::Project Pages: 1 -->
<svg width="266pt" height="64pt"
 viewBox="0.00 0.00 266.00 64.00" xmlns="http://www.w3.org/2000/svg" xmlns:xlink="http://www.w3.org/1999/xlink">
<g id="graph0" class="graph" transform="scale(1 1) rotate(0) translate(4 60)">
<title>geometry::collision::Polygon::Project</title>
<!-- Node1 -->
<g id="node1" class="node">
<title>Node1</title>
<g id="a_node1"><a xlink:title="Implements @Shape.Project for a circle.">
<polygon fill="#999999" stroke="#666666" points="98,-42.5 0,-42.5 0,-12.5 98,-12.5 98,-42.5"/>
<text text-anchor="start" x="8" y="-30.5" font-family="Helvetica,sans-Serif" font-size="10.00">geometry::collision</text>
<text text-anchor="middle" x="49" y="-19.5" font-family="Helvetica,sans-Serif" font-size="10.00">::Polygon::Project</text>
</a>
</g>
</g>
<!-- Node2 -->
<g id="node2" class="node">
<title>Node2</title>
<g id="a_node2"><a target="_blank" xlink:href="http://en.cppreference.com/w/cpp/types/numeric_limits/max.html#" xlink:title=" ">
<polygon fill="white" stroke="#666666" points="258,-56 134,-56 134,-37 258,-37 258,-56"/>
<text text-anchor="middle" x="196" y="-44" font-family="Helvetica,sans-Serif" font-size="10.00">std::numeric_limits::max</text>
</a>
</g>
</g>
<!-- Node1&#45;&gt;Node2 -->
<g id="edge1" class="edge">
<title>Node1&#45;&gt;Node2</title>
<path fill="none" stroke="#63b8ff" d="M98.28,-33.83C106.45,-34.9 115.09,-36.03 123.7,-37.16"/>
<polygon fill="#63b8ff" stroke="#63b8ff" points="123.4,-40.65 133.77,-38.48 124.31,-33.71 123.4,-40.65"/>
</g>
<!-- Node3 -->
<g id="node3" class="node">
<title>Node3</title>
<g id="a_node3"><a target="_blank" xlink:href="http://en.cppreference.com/w/cpp/types/numeric_limits/min.html#" xlink:title=" ">
<polygon fill="white" stroke="#666666" points="256.5,-19 135.5,-19 135.5,0 256.5,0 256.5,-19"/>
<text text-anchor="middle" x="196" y="-7" font-family="Helvetica,sans-Serif" font-size="10.00">std::numeric_limits::min</text>
</a>
</g>
</g>
<!-- Node1&#45;&gt;Node3 -->
<g id="edge2" class="edge">
<title>Node1&#45;&gt;Node3</title>
<path fill="none" stroke="#63b8ff" d="M98.28,-21.51C106.9,-20.44 116.04,-19.3 125.12,-18.17"/>
<polygon fill="#63b8ff" stroke="#63b8ff" points="125.82,-21.61 135.32,-16.91 124.96,-14.67 125.82,-21.61"/>
</g>
</g>
</svg>
