<?xml version="1.0" encoding="UTF-8" standalone="no"?>
<!DOCTYPE svg PUBLIC "-//W3C//DTD SVG 1.1//EN"
 "http://www.w3.org/Graphics/SVG/1.1/DTD/svg11.dtd">
<!-- Generated by graphviz version 5.0.1 (20220820.1526)
 -->
<!-- Title: geometry::collision::Polygon::SAT Pages: 1 -->
<svg width="374pt" height="128pt"
 viewBox="0.00 0.00 374.00 128.00" xmlns="http://www.w3.org/2000/svg" xmlns:xlink="http://www.w3.org/1999/xlink">
<g id="graph0" class="graph" transform="scale(1 1) rotate(0) translate(4 124)">
<title>geometry::collision::Polygon::SAT</title>
<!-- Node1 -->
<g id="node1" class="node">
<title>Node1</title>
<g id="a_node1"><a xlink:title="projects @this and @otherShape onto all the axes defined by @this and checks for overlapping">
<polygon fill="#999999" stroke="#666666" points="98,-87 0,-87 0,-57 98,-57 98,-87"/>
<text text-anchor="start" x="8" y="-75" font-family="Helvetica,sans-Serif" font-size="10.00">geometry::collision</text>
<text text-anchor="middle" x="49" y="-64" font-family="Helvetica,sans-Serif" font-size="10.00">::Polygon::SAT</text>
</a>
</g>
</g>
<!-- Node2 -->
<g id="node2" class="node">
<title>Node2</title>
<g id="a_node2"><a xlink:href="../../d6/da5/classgeometry_1_1collision_1_1_vec2.html#a83c57ff8dad6db1cdb4d9e852ebb2708" target="_top" xlink:title="Normalizes @this vector, changing its length to 1.">
<polygon fill="white" stroke="#666666" points="232,-120 134,-120 134,-90 232,-90 232,-120"/>
<text text-anchor="start" x="142" y="-108" font-family="Helvetica,sans-Serif" font-size="10.00">geometry::collision</text>
<text text-anchor="middle" x="183" y="-97" font-family="Helvetica,sans-Serif" font-size="10.00">::Vec2::Normalize</text>
</a>
</g>
</g>
<!-- Node1&#45;&gt;Node2 -->
<g id="edge1" class="edge">
<title>Node1&#45;&gt;Node2</title>
<path fill="none" stroke="#63b8ff" d="M98.03,-84.01C106.49,-86.12 115.38,-88.34 124.08,-90.52"/>
<polygon fill="#63b8ff" stroke="#63b8ff" points="123.24,-93.92 133.79,-92.95 124.93,-87.13 123.24,-93.92"/>
</g>
<!-- Node3 -->
<g id="node3" class="node">
<title>Node3</title>
<g id="a_node3"><a xlink:href="../../df/de0/sat__collision_8cpp.html#a9731a16a1ce0cde9a87bb21d398e1907" target="_top" xlink:title="Find if two shapes overlap when projected onto an axis.">
<polygon fill="white" stroke="#666666" points="232,-54 134,-54 134,-24 232,-24 232,-54"/>
<text text-anchor="start" x="142" y="-42" font-family="Helvetica,sans-Serif" font-size="10.00">geometry::collision</text>
<text text-anchor="middle" x="183" y="-31" font-family="Helvetica,sans-Serif" font-size="10.00">::OverlapOnAxis</text>
</a>
</g>
</g>
<!-- Node1&#45;&gt;Node3 -->
<g id="edge2" class="edge">
<title>Node1&#45;&gt;Node3</title>
<path fill="none" stroke="#63b8ff" d="M98.03,-59.99C106.49,-57.88 115.38,-55.66 124.08,-53.48"/>
<polygon fill="#63b8ff" stroke="#63b8ff" points="124.93,-56.87 133.79,-51.05 123.24,-50.08 124.93,-56.87"/>
</g>
<!-- Node3&#45;&gt;Node3 -->
<g id="edge5" class="edge">
<title>Node3&#45;&gt;Node3</title>
<path fill="none" stroke="#63b8ff" d="M159.45,-54.28C154.21,-63.41 162.06,-72 183,-72 195.43,-72 203.25,-68.97 206.46,-64.6"/>
<polygon fill="#63b8ff" stroke="#63b8ff" points="209.96,-64.31 206.55,-54.28 202.96,-64.24 209.96,-64.31"/>
</g>
<!-- Node4 -->
<g id="node4" class="node">
<title>Node4</title>
<g id="a_node4"><a xlink:href="../../df/de0/sat__collision_8cpp.html#acf6f2e740f3e88b806ed5d7fe72c52a8" target="_top" xlink:title="Find if two intervals [min1, max1] and [min2, max2] overlaps.">
<polygon fill="white" stroke="#666666" points="366,-78 268,-78 268,-48 366,-48 366,-78"/>
<text text-anchor="start" x="276" y="-66" font-family="Helvetica,sans-Serif" font-size="10.00">geometry::collision</text>
<text text-anchor="middle" x="317" y="-55" font-family="Helvetica,sans-Serif" font-size="10.00">::DoOverlap</text>
</a>
</g>
</g>
<!-- Node3&#45;&gt;Node4 -->
<g id="edge3" class="edge">
<title>Node3&#45;&gt;Node4</title>
<path fill="none" stroke="#63b8ff" d="M232.03,-47.73C240.4,-49.25 249.19,-50.85 257.8,-52.42"/>
<polygon fill="#63b8ff" stroke="#63b8ff" points="257.32,-55.89 267.79,-54.23 258.57,-49 257.32,-55.89"/>
</g>
<!-- Node5 -->
<g id="node5" class="node">
<title>Node5</title>
<g id="a_node5"><a xlink:href="../../df/d23/classgeometry_1_1collision_1_1_shape.html#a1033a34210faa1043cc5ff729d76549d" target="_top" xlink:title="projects the shape onto an axis which creates a finite interval [minRes, maxRes]">
<polygon fill="white" stroke="#666666" points="366,-30 268,-30 268,0 366,0 366,-30"/>
<text text-anchor="start" x="276" y="-18" font-family="Helvetica,sans-Serif" font-size="10.00">geometry::collision</text>
<text text-anchor="middle" x="317" y="-7" font-family="Helvetica,sans-Serif" font-size="10.00">::Shape::Project</text>
</a>
</g>
</g>
<!-- Node3&#45;&gt;Node5 -->
<g id="edge6" class="edge">
<title>Node3&#45;&gt;Node5</title>
<path fill="none" stroke="#63b8ff" d="M232.03,-30.27C240.4,-28.75 249.19,-27.15 257.8,-25.58"/>
<polygon fill="#63b8ff" stroke="#63b8ff" points="258.57,-29 267.79,-23.77 257.32,-22.11 258.57,-29"/>
</g>
<!-- Node4&#45;&gt;Node4 -->
<g id="edge4" class="edge">
<title>Node4&#45;&gt;Node4</title>
<path fill="none" stroke="#63b8ff" d="M293.45,-78.28C288.21,-87.41 296.06,-96 317,-96 329.43,-96 337.25,-92.97 340.46,-88.6"/>
<polygon fill="#63b8ff" stroke="#63b8ff" points="343.96,-88.31 340.55,-78.28 336.96,-88.24 343.96,-88.31"/>
</g>
</g>
</svg>
