<?xml version="1.0" encoding="UTF-8" standalone="no"?>
<!DOCTYPE svg PUBLIC "-//W3C//DTD SVG 1.1//EN"
 "http://www.w3.org/Graphics/SVG/1.1/DTD/svg11.dtd">
<!-- Generated by graphviz version 5.0.1 (20220820.1526)
 -->
<!-- Title: geometry::collision::Circle::SAT Pages: 1 -->
<svg width="410pt" height="176pt"
 viewBox="0.00 0.00 410.00 176.00" xmlns="http://www.w3.org/2000/svg" xmlns:xlink="http://www.w3.org/1999/xlink">
<g id="graph0" class="graph" transform="scale(1 1) rotate(0) translate(4 172)">
<title>geometry::collision::Circle::SAT</title>
<!-- Node1 -->
<g id="node1" class="node">
<title>Node1</title>
<g id="a_node1"><a xlink:title="implements @Shape.SAT for a circle.">
<polygon fill="#999999" stroke="#666666" points="98,-120 0,-120 0,-90 98,-90 98,-120"/>
<text text-anchor="start" x="8" y="-108" font-family="Helvetica,sans-Serif" font-size="10.00">geometry::collision</text>
<text text-anchor="middle" x="49" y="-97" font-family="Helvetica,sans-Serif" font-size="10.00">::Circle::SAT</text>
</a>
</g>
</g>
<!-- Node2 -->
<g id="node2" class="node">
<title>Node2</title>
<g id="a_node2"><a xlink:href="../../df/d23/classgeometry_1_1collision_1_1_shape.html#ae44df6c5f892e4cc54cf6ed6810a5351" target="_top" xlink:title="Finds the vertex which is closest to a given point.">
<polygon fill="white" stroke="#666666" points="268,-168 134,-168 134,-138 268,-138 268,-168"/>
<text text-anchor="start" x="142" y="-156" font-family="Helvetica,sans-Serif" font-size="10.00">geometry::collision</text>
<text text-anchor="middle" x="201" y="-145" font-family="Helvetica,sans-Serif" font-size="10.00">::Shape::GetClosestVertex</text>
</a>
</g>
</g>
<!-- Node1&#45;&gt;Node2 -->
<g id="edge1" class="edge">
<title>Node1&#45;&gt;Node2</title>
<path fill="none" stroke="#63b8ff" d="M97.05,-120.06C111.71,-124.75 128.03,-129.97 143.28,-134.85"/>
<polygon fill="#63b8ff" stroke="#63b8ff" points="142.53,-138.28 153.12,-138 144.66,-131.62 142.53,-138.28"/>
</g>
<!-- Node3 -->
<g id="node3" class="node">
<title>Node3</title>
<g id="a_node3"><a xlink:href="../../d6/da5/classgeometry_1_1collision_1_1_vec2.html#a83c57ff8dad6db1cdb4d9e852ebb2708" target="_top" xlink:title="Normalizes @this vector, changing its length to 1.">
<polygon fill="white" stroke="#666666" points="250,-120 152,-120 152,-90 250,-90 250,-120"/>
<text text-anchor="start" x="160" y="-108" font-family="Helvetica,sans-Serif" font-size="10.00">geometry::collision</text>
<text text-anchor="middle" x="201" y="-97" font-family="Helvetica,sans-Serif" font-size="10.00">::Vec2::Normalize</text>
</a>
</g>
</g>
<!-- Node1&#45;&gt;Node3 -->
<g id="edge2" class="edge">
<title>Node1&#45;&gt;Node3</title>
<path fill="none" stroke="#63b8ff" d="M98.29,-105C112.07,-105 127.24,-105 141.56,-105"/>
<polygon fill="#63b8ff" stroke="#63b8ff" points="141.8,-108.5 151.8,-105 141.8,-101.5 141.8,-108.5"/>
</g>
<!-- Node4 -->
<g id="node4" class="node">
<title>Node4</title>
<g id="a_node4"><a xlink:href="../../df/de0/sat__collision_8cpp.html#a9731a16a1ce0cde9a87bb21d398e1907" target="_top" xlink:title="Find if two shapes overlap when projected onto an axis.">
<polygon fill="white" stroke="#666666" points="250,-54 152,-54 152,-24 250,-24 250,-54"/>
<text text-anchor="start" x="160" y="-42" font-family="Helvetica,sans-Serif" font-size="10.00">geometry::collision</text>
<text text-anchor="middle" x="201" y="-31" font-family="Helvetica,sans-Serif" font-size="10.00">::OverlapOnAxis</text>
</a>
</g>
</g>
<!-- Node1&#45;&gt;Node4 -->
<g id="edge3" class="edge">
<title>Node1&#45;&gt;Node4</title>
<path fill="none" stroke="#63b8ff" d="M84.41,-89.86C105.85,-80.43 133.62,-68.21 156.57,-58.11"/>
<polygon fill="#63b8ff" stroke="#63b8ff" points="158,-61.3 165.75,-54.07 155.18,-54.9 158,-61.3"/>
</g>
<!-- Node4&#45;&gt;Node4 -->
<g id="edge6" class="edge">
<title>Node4&#45;&gt;Node4</title>
<path fill="none" stroke="#63b8ff" d="M174.28,-54.28C168.34,-63.41 177.25,-72 201,-72 215.1,-72 223.97,-68.97 227.61,-64.6"/>
<polygon fill="#63b8ff" stroke="#63b8ff" points="231.11,-64.31 227.72,-54.28 224.11,-64.24 231.11,-64.31"/>
</g>
<!-- Node5 -->
<g id="node5" class="node">
<title>Node5</title>
<g id="a_node5"><a xlink:href="../../df/de0/sat__collision_8cpp.html#acf6f2e740f3e88b806ed5d7fe72c52a8" target="_top" xlink:title="Find if two intervals [min1, max1] and [min2, max2] overlaps.">
<polygon fill="white" stroke="#666666" points="402,-78 304,-78 304,-48 402,-48 402,-78"/>
<text text-anchor="start" x="312" y="-66" font-family="Helvetica,sans-Serif" font-size="10.00">geometry::collision</text>
<text text-anchor="middle" x="353" y="-55" font-family="Helvetica,sans-Serif" font-size="10.00">::DoOverlap</text>
</a>
</g>
</g>
<!-- Node4&#45;&gt;Node5 -->
<g id="edge4" class="edge">
<title>Node4&#45;&gt;Node5</title>
<path fill="none" stroke="#63b8ff" d="M250.29,-46.73C264.07,-48.93 279.24,-51.36 293.56,-53.65"/>
<polygon fill="#63b8ff" stroke="#63b8ff" points="293.38,-57.16 303.8,-55.29 294.48,-50.25 293.38,-57.16"/>
</g>
<!-- Node6 -->
<g id="node6" class="node">
<title>Node6</title>
<g id="a_node6"><a xlink:href="../../df/d23/classgeometry_1_1collision_1_1_shape.html#a1033a34210faa1043cc5ff729d76549d" target="_top" xlink:title="projects the shape onto an axis which creates a finite interval [minRes, maxRes]">
<polygon fill="white" stroke="#666666" points="402,-30 304,-30 304,0 402,0 402,-30"/>
<text text-anchor="start" x="312" y="-18" font-family="Helvetica,sans-Serif" font-size="10.00">geometry::collision</text>
<text text-anchor="middle" x="353" y="-7" font-family="Helvetica,sans-Serif" font-size="10.00">::Shape::Project</text>
</a>
</g>
</g>
<!-- Node4&#45;&gt;Node6 -->
<g id="edge7" class="edge">
<title>Node4&#45;&gt;Node6</title>
<path fill="none" stroke="#63b8ff" d="M250.29,-31.27C264.07,-29.07 279.24,-26.64 293.56,-24.35"/>
<polygon fill="#63b8ff" stroke="#63b8ff" points="294.48,-27.75 303.8,-22.71 293.38,-20.84 294.48,-27.75"/>
</g>
<!-- Node5&#45;&gt;Node5 -->
<g id="edge5" class="edge">
<title>Node5&#45;&gt;Node5</title>
<path fill="none" stroke="#63b8ff" d="M326.28,-78.28C320.34,-87.41 329.25,-96 353,-96 367.1,-96 375.97,-92.97 379.61,-88.6"/>
<polygon fill="#63b8ff" stroke="#63b8ff" points="383.11,-88.31 379.72,-78.28 376.11,-88.24 383.11,-88.31"/>
</g>
</g>
</svg>
