<?xml version="1.0" encoding="UTF-8" standalone="no"?>
<!DOCTYPE svg PUBLIC "-//W3C//DTD SVG 1.1//EN"
 "http://www.w3.org/Graphics/SVG/1.1/DTD/svg11.dtd">
<!-- Generated by graphviz version 5.0.1 (20220820.1526)
 -->
<!-- Title: geometry/sat_collision.cpp Pages: 1 -->
<svg width="348pt" height="82pt"
 viewBox="0.00 0.00 347.50 82.00" xmlns="http://www.w3.org/2000/svg" xmlns:xlink="http://www.w3.org/1999/xlink">
<g id="graph0" class="graph" transform="scale(1 1) rotate(0) translate(4 78)">
<title>geometry/sat_collision.cpp</title>
<!-- Node1 -->
<g id="node1" class="node">
<title>Node1</title>
<g id="a_node1"><a xlink:title="Implementation of the [Hyperplane Separation Theorem] (https://en.wikipedia.org/wiki/Hyperplane_separ...">
<polygon fill="#999999" stroke="#666666" points="225.5,-74 92.5,-74 92.5,-55 225.5,-55 225.5,-74"/>
<text text-anchor="middle" x="159" y="-62" font-family="Helvetica,sans-Serif" font-size="10.00">geometry/sat_collision.cpp</text>
</a>
</g>
</g>
<!-- Node2 -->
<g id="node2" class="node">
<title>Node2</title>
<g id="a_node2"><a xlink:title=" ">
<polygon fill="#e0e0e0" stroke="#999999" points="44,-19 0,-19 0,0 44,0 44,-19"/>
<text text-anchor="middle" x="22" y="-7" font-family="Helvetica,sans-Serif" font-size="10.00">vector</text>
</a>
</g>
</g>
<!-- Node1&#45;&gt;Node2 -->
<g id="edge1" class="edge">
<title>Node1&#45;&gt;Node2</title>
<path fill="none" stroke="#63b8ff" d="M136.99,-54.98C114.55,-46.3 79.52,-32.75 54.01,-22.88"/>
<polygon fill="#63b8ff" stroke="#63b8ff" points="55,-19.51 44.41,-19.17 52.48,-26.04 55,-19.51"/>
</g>
<!-- Node3 -->
<g id="node3" class="node">
<title>Node3</title>
<g id="a_node3"><a xlink:title=" ">
<polygon fill="#e0e0e0" stroke="#999999" points="116,-19 62,-19 62,0 116,0 116,-19"/>
<text text-anchor="middle" x="89" y="-7" font-family="Helvetica,sans-Serif" font-size="10.00">iostream</text>
</a>
</g>
</g>
<!-- Node1&#45;&gt;Node3 -->
<g id="edge2" class="edge">
<title>Node1&#45;&gt;Node3</title>
<path fill="none" stroke="#63b8ff" d="M147.75,-54.98C137.2,-47 121.2,-34.88 108.56,-25.31"/>
<polygon fill="#63b8ff" stroke="#63b8ff" points="110.54,-22.42 100.45,-19.17 106.31,-28 110.54,-22.42"/>
</g>
<!-- Node4 -->
<g id="node4" class="node">
<title>Node4</title>
<g id="a_node4"><a xlink:title=" ">
<polygon fill="#e0e0e0" stroke="#999999" points="183.5,-19 134.5,-19 134.5,0 183.5,0 183.5,-19"/>
<text text-anchor="middle" x="159" y="-7" font-family="Helvetica,sans-Serif" font-size="10.00">cassert</text>
</a>
</g>
</g>
<!-- Node1&#45;&gt;Node4 -->
<g id="edge3" class="edge">
<title>Node1&#45;&gt;Node4</title>
<path fill="none" stroke="#63b8ff" d="M159,-54.75C159,-47.8 159,-37.85 159,-29.13"/>
<polygon fill="#63b8ff" stroke="#63b8ff" points="162.5,-29.09 159,-19.09 155.5,-29.09 162.5,-29.09"/>
</g>
<!-- Node5 -->
<g id="node5" class="node">
<title>Node5</title>
<g id="a_node5"><a xlink:title=" ">
<polygon fill="#e0e0e0" stroke="#999999" points="242,-19 202,-19 202,0 242,0 242,-19"/>
<text text-anchor="middle" x="222" y="-7" font-family="Helvetica,sans-Serif" font-size="10.00">limits</text>
</a>
</g>
</g>
<!-- Node1&#45;&gt;Node5 -->
<g id="edge4" class="edge">
<title>Node1&#45;&gt;Node5</title>
<path fill="none" stroke="#63b8ff" d="M169.12,-54.98C178.44,-47.15 192.47,-35.34 203.74,-25.86"/>
<polygon fill="#63b8ff" stroke="#63b8ff" points="206.29,-28.29 211.69,-19.17 201.79,-22.93 206.29,-28.29"/>
</g>
<!-- Node6 -->
<g id="node6" class="node">
<title>Node6</title>
<g id="a_node6"><a xlink:href="../../da/d74/sat__collision_8h.html" target="_top" xlink:title="Implementation of the [Hyperplane Separation Theorem] (https://en.wikipedia.org/wiki/Hyperplane_separ...">
<polygon fill="white" stroke="#666666" points="339.5,-19 260.5,-19 260.5,0 339.5,0 339.5,-19"/>
<text text-anchor="middle" x="300" y="-7" font-family="Helvetica,sans-Serif" font-size="10.00">sat_collision.h</text>
</a>
</g>
</g>
<!-- Node1&#45;&gt;Node6 -->
<g id="edge5" class="edge">
<title>Node1&#45;&gt;Node6</title>
<path fill="none" stroke="#63b8ff" d="M181.65,-54.98C204.85,-46.27 241.12,-32.63 267.4,-22.75"/>
<polygon fill="#63b8ff" stroke="#63b8ff" points="268.8,-25.97 276.93,-19.17 266.34,-19.41 268.8,-25.97"/>
</g>
</g>
</svg>
